<svg xmlns="http://www.w3.org/2000/svg" aria-hidden="true" overflow="hidden" style="position:absolute;width:0;height:0"><defs><symbol id="icon-close" viewBox="0 0 32 32"><path stroke-linecap="round" stroke-linejoin="round" stroke-width="2" d="M24 8 8 24M8 8l16 16"/></symbol><symbol id="icon-close-modal" viewBox="0 0 32 32"><path stroke-linecap="round" stroke-linejoin="round" stroke-width="4.571" d="M29.333 2.667 2.666 29.334m0-26.667 26.667 26.667"/></symbol><symbol id="icon-mobile-menu" viewBox="0 0 32 32"><path d="M3.753 7.037c-.645.154-.956.968-.575 1.507.085.121.251.27.369.331l.213.112 12.08.014c8.657.01 12.161-.003 12.365-.045.998-.206 1.034-1.659.047-1.908-.281-.07-24.204-.081-24.499-.011zm0 5.334c-.645.154-.956.967-.575 1.506.085.121.251.27.369.332l.213.111 12.08.014c8.657.01 12.161-.002 12.365-.045.998-.206 1.034-1.659.047-1.907-.281-.071-24.204-.082-24.499-.011zm0 5.333c-.645.155-.956.968-.575 1.506.085.121.251.271.369.332l.213.111 12.08.014c8.657.011 12.161-.002 12.365-.044.876-.181 1.059-1.34.287-1.819l-.199-.124-12.186-.008c-6.703-.005-12.262.01-12.354.032zm0 5.333c-.645.154-.956.968-.575 1.507.085.121.251.27.369.331l.213.112 12.08.014c8.657.01 12.161-.003 12.365-.045.998-.206 1.034-1.659.047-1.908-.281-.07-24.204-.081-24.499-.011z"/></symbol><symbol id="icon-arrow-top" viewBox="0 0 31 32"><path d="M16.413 7.652v17.019h-1.811V7.652l-8.509 8.509-1.28-1.28L15.508 4.186l10.695 10.695-1.28 1.28-8.509-8.509z"/></symbol><symbol id="icon-sun" viewBox="0 0 32 32"><path d="m14.254 13.505.363.372L10.151 1.08l5.321 12.466.018-.52.441-13.027.441 13.026.018.52 5.321-12.466-4.466 12.797 9.465-9.702-8.787 10.32 12.331-5.628-11.922 6.449 13.531-.793-13.446 1.707 12.904 4.148-13.155-3.266 10.534 8.53-11.087-7.798 6.741 11.759-7.521-11.276 2.038 13.4-2.94-13.232-2.94 13.232 2.038-13.4-7.521 11.276 6.741-11.759-11.087 7.798 10.534-8.53L.541 20.377l12.904-4.148-13.446-1.707 13.531.793L1.608 8.866l12.331 5.628-8.787-10.32 9.102 9.33zm.931.566-.646.4-.458.607-.208.731.07.757.339.68.562.512.709.275h.76l.709-.275.562-.512.339-.68.07-.757-.208-.731-.458-.607-.646-.4-.747-.14-.747.14z"/></symbol><symbol id="icon-star-18" viewBox="0 0 32 32"><path d="M13.826 3.262c.684-2.106 3.663-2.106 4.348 0l1.932 5.945a2.285 2.285 0 0 0 2.174 1.579h6.251c2.214 0 3.135 2.833 1.344 4.135l-5.057 3.674a2.286 2.286 0 0 0-.83 2.556l1.931 5.945c.684 2.106-1.726 3.857-3.517 2.555l-5.057-3.674a2.286 2.286 0 0 0-2.687 0l-5.057 3.674c-1.791 1.302-4.202-.45-3.517-2.555l1.932-5.945a2.287 2.287 0 0 0-.83-2.556l-5.057-3.674c-1.791-1.302-.871-4.135 1.344-4.135h6.251c.99 0 1.868-.638 2.174-1.579l1.932-5.945z"/></symbol><symbol id="icon-star-24" viewBox="0 0 32 32"><path d="M14.478 2.283c.479-1.474 2.564-1.474 3.043 0l2.43 7.478a1.6 1.6 0 0 0 1.522 1.106h7.863c1.55 0 2.194 1.983.94 2.894l-6.361 4.622a1.6 1.6 0 0 0-.581 1.789l2.43 7.478c.479 1.474-1.208 2.7-2.462 1.789l-6.361-4.622a1.602 1.602 0 0 0-1.881 0l-6.361 4.622c-1.254.911-2.941-.315-2.462-1.789l2.43-7.478a1.6 1.6 0 0 0-.581-1.789l-6.361-4.622c-1.254-.911-.61-2.894.94-2.894h7.863a1.6 1.6 0 0 0 1.522-1.106l2.43-7.478z"/></symbol><symbol id="icon-inverted-commas" viewBox="0 0 32 32"><path d="M8.201 17.469c1.546-.613 2.785-.452 3.719.481s1.21 2.421.831 4.463c-.292 1.517-.933 2.683-1.925 3.5-.963.787-2.085 1.181-3.369 1.181-1.75 0-2.96-.671-3.631-2.013-.671-1.371-.802-3.208-.394-5.512.233-1.254.613-2.523 1.137-3.806s1.225-2.596 2.1-3.938 2.013-2.508 3.413-3.5 2.946-1.633 4.637-1.925l-.437 4.638c-1.429.292-2.698 1.035-3.806 2.231-1.108 1.167-1.867 2.567-2.275 4.2zm13.169 0c1.546-.613 2.785-.452 3.719.481s1.21 2.421.831 4.463c-.292 1.517-.933 2.683-1.925 3.5-.963.787-2.085 1.181-3.369 1.181-1.75 0-2.96-.671-3.631-2.013-.671-1.371-.802-3.208-.394-5.512.233-1.254.613-2.523 1.137-3.806s1.225-2.596 2.1-3.938 2.013-2.508 3.413-3.5 2.946-1.633 4.637-1.925l-.437 4.638c-1.429.292-2.698 1.035-3.806 2.231-1.108 1.167-1.867 2.567-2.275 4.2z"/></symbol><symbol id="icon-running-stick-figure" viewBox="0 0 32 32"><path d="M29.647 9.451a1.185 1.185 0 0 0-1.667-.149l-3.282 2.757-1.509-3.739a1.163 1.163 0 0 0-.229-.362 3.215 3.215 0 0 0-1.582-1.617 3.24 3.24 0 0 0-.982-.262c-.073-.038-.139-.088-.222-.114l-5.775-1.61a1.19 1.19 0 0 0-.917.125 1.155 1.155 0 0 0-.719.672l-2.175 5.592a1.188 1.188 0 0 0 .676 1.534 1.187 1.187 0 0 0 1.532-.678l1.837-4.722 2.63.731c-.064.104-.133.201-.185.312l-3.372 7.309c-.049.107-.075.217-.109.328l-4.098 6.871-6.859 2.294a1.751 1.751 0 0 0 2.081 2.819l7.018-2.417c.215-.156.371-.36.489-.58.088-.094.189-.168.256-.284l2.443-4.096 4.337 3.696-4.641 5.23a1.75 1.75 0 1 0 2.622 2.32l5.791-6.524a1.72 1.72 0 0 0 .36-.676c.043-.132.043-.269.054-.406 0-.069.026-.132.021-.196a1.72 1.72 0 0 0-.601-1.274l-3.991-3.403c.288-.274.532-.6.709-.983l2.585-5.599.828 2.206c.035.196.1.388.239.549.125.149.284.248.454.317.017.009.038.01.059.016.107.038.216.075.329.08.133.012.269-.005.405-.043l.005-.002c.036-.009.073-.002.109-.017a1.17 1.17 0 0 0 .466-.34l4.71-3.998c.501-.421.289-1.166-.132-1.667zM23.69 6.602a3.301 3.301 0 1 0 0-6.602 3.301 3.301 0 0 0 0 6.602z"/></symbol><symbol id="icon-dumbbell" viewBox="0 0 32 32"><path d="M7.36 9.143H5.44c-.532 0-.96.459-.96 1.029v4.457h-.96c-.176 0-.32.154-.32.343v2.057c0 .188.144.343.32.343h.96v4.457c0 .57.428 1.028.96 1.028h1.92c.532 0 .96-.459.96-1.028V10.172c0-.57-.428-1.029-.96-1.029zm21.12 5.486h-.96v-4.457c0-.57-.428-1.029-.96-1.029h-1.92c-.532 0-.96.459-.96 1.029v11.657c0 .57.428 1.028.96 1.028h1.92c.532 0 .96-.459.96-1.028v-4.457h.96c.176 0 .32-.154.32-.343v-2.057c0-.189-.144-.343-.32-.343zM21.44 6.4h-1.92c-.532 0-.96.459-.96 1.029v7.2h-5.12v-7.2c0-.57-.428-1.029-.96-1.029h-1.92c-.532 0-.96.459-.96 1.029v17.143c0 .57.428 1.029.96 1.029h1.92c.532 0 .96-.459.96-1.029v-7.2h5.12v7.2c0 .57.428 1.029.96 1.029h1.92c.532 0 .96-.459.96-1.029V7.429c0-.57-.428-1.029-.96-1.029z"/></symbol><symbol id="icon-youtube" viewBox="0 0 32 32"><path d="M24.24 6c-1.36-.08-4.16-.16-8.4-.16h-.56c-4.08 0-6.8.08-8.16.24-1.84.16-3.12.64-3.84 1.28-.64.56-1.12 1.6-1.28 2.96-.08.88-.16 2.72-.16 5.52v.4c0 2.64.08 4.48.24 5.36.24 1.28.64 2.24 1.44 2.8.8.64 2.16 1.04 4.08 1.2 1.36.08 4.16.16 8.4.16h.56c4.08 0 6.8-.08 8.16-.24 1.84-.16 3.12-.64 3.84-1.28.64-.56 1.12-1.6 1.28-2.96.08-.88.16-2.72.16-5.52v-.4c0-2.64-.08-4.48-.24-5.36-.24-1.28-.64-2.24-1.44-2.8-.8-.64-2.16-1.04-4.08-1.2zm-3.12 9.84-8.8 5.28V10.56l8.8 5.28z"/></symbol><symbol id="icon-instagram" viewBox="0 0 32 32"><path d="M28.717 10.756a9.264 9.264 0 0 0-.596-3.145 6.547 6.547 0 0 0-3.743-3.737 9.42 9.42 0 0 0-3.108-.596c-1.368-.061-1.801-.078-5.273-.078s-3.917 0-5.274.078a9.418 9.418 0 0 0-3.106.596 6.541 6.541 0 0 0-3.743 3.737 9.288 9.288 0 0 0-.596 3.101c-.061 1.367-.08 1.8-.08 5.265s0 3.909.08 5.265a9.335 9.335 0 0 0 .596 3.104 6.548 6.548 0 0 0 3.744 3.735 9.37 9.37 0 0 0 3.106.639c1.369.061 1.803.08 5.274.08s3.916 0 5.274-.08a9.357 9.357 0 0 0 3.108-.595 6.555 6.555 0 0 0 3.743-3.737 9.35 9.35 0 0 0 .596-3.104c.061-1.365.08-1.798.08-5.265-.003-3.466-.003-3.906-.082-5.264zM15.99 22.531c-3.631 0-6.572-2.936-6.572-6.561s2.941-6.561 6.572-6.561c3.628 0 6.572 2.936 6.572 6.561s-2.944 6.561-6.572 6.561zm6.833-11.835a1.53 1.53 0 1 1 0-3.06 1.53 1.53 0 1 1 0 3.06z"/><path d="M15.992 19.976a4.004 4.004 0 1 0 0-8.009 4.004 4.004 0 0 0 0 8.009z"/></symbol><symbol id="icon-facebook" viewBox="0 0 32 32"><path d="M19.52 4.64h.96v3.6h-1.2c-.48 0-.96 0-1.2.24s-.24.48-.24 1.04v1.28h2.64v3.04h-2.64v13.2h-4.08V13.76H11.6v-3.04h2.16V9.68c0-1.76.24-3.04.72-3.6.72-1.04 2.16-1.52 4.32-1.52.24.08.48.08.72.08z"/></symbol><symbol id="icon-logo" viewBox="0 0 302 32"><path d="M11.383 18.926 0 0h6.811l7.634 13.12h.091L22.17 0h6.811L17.598 18.926V32h-6.217V18.926zM28.961 26.743V5.257L34.218 0h16.457l5.257 5.257v21.486L50.675 32H34.218l-5.257-5.257zm18.423-.046 2.331-2.331V7.635l-2.331-2.331H37.51l-2.331 2.331v16.731l2.331 2.331h9.874zM60.284 26.514V0h6.217v24.366l2.331 2.331h8.96l2.331-2.331V0h6.217v26.514L80.854 32H65.768l-5.486-5.486zM116.293 21.394V32h-6.217v-9.189l-2.743-3.063h-9.966v12.251H91.15v-32h20.069l4.891 4.937v9.691l-3.109 3.154 3.291 3.611zm-18.926-6.765h11.017l1.6-1.6V6.812l-1.6-1.6H97.367v9.417zM132.168 0h23.131v5.257h-16.914v8.091h15.589v5.166h-15.589v8.229h16.914V32h-23.131V0zM158.748 0h5.577l14.263 21.714h.091V0h5.989v32h-5.577l-14.263-21.669h-.091V32h-5.989V0zM189.48 0h23.131v5.257h-16.914v8.091h15.589v5.166h-15.589v8.229h16.914V32H189.48V0zM241.205 21.394V32h-6.217v-9.189l-2.743-3.063h-9.967v12.251h-6.217v-32h20.07l4.891 4.937v9.691l-3.109 3.154 3.291 3.611zm-18.927-6.765h11.018l1.6-1.6V6.812l-1.6-1.6h-11.018v9.417zM245.31 26.743V5.257L250.567 0h15.909l5.166 5.166v4.891h-6.217V7.451l-2.149-2.149h-9.417l-2.331 2.331v16.731l2.331 2.331h9.509l2.24-2.24v-4.983h-6.857v-5.303h12.891V26.74l-5.257 5.257h-15.817l-5.257-5.257zM283.035 18.926 271.652 0h6.811l7.634 13.12h.091L293.822 0h6.811L289.25 18.926V32h-6.217V18.926z"/></symbol><symbol id="icon-heart" viewBox="0 0 32 32"><path d="M7.926 2.939c-3.343.611-5.974 3.098-6.787 6.309l-.013.059c-.17.691-.232 1.232-.232 2.026 0 1.909.539 3.533 1.71 5.147.322.445 12.488 12.669 12.808 12.869.15.094.267.118.587.118s.437-.024.587-.118c.328-.206 12.486-12.426 12.824-12.89a8.652 8.652 0 0 0 1.625-3.904l.006-.048a11.21 11.21 0 0 0-.005-2.397l.004.05c-.485-3.261-2.666-5.875-5.758-6.91-1.781-.595-3.914-.565-5.606.078-1.226.466-2.022.971-3.104 1.968l-.573.53-.573-.53c-.68-.626-1.054-.915-1.667-1.282a8.266 8.266 0 0 0-3.074-1.106l-.046-.006c-.688-.106-1.998-.088-2.714.037zm1.967 2.288a6.404 6.404 0 0 1 3 1.066l-.023-.014c.221.146.837.698 1.454 1.302 1.122 1.099 1.218 1.165 1.675 1.165.456 0 .552-.066 1.678-1.166.606-.594 1.242-1.162 1.454-1.304 2.208-1.467 5.029-1.418 7.107.125.47.35 1.152 1.064 1.458 1.53a6.05 6.05 0 0 1 1.034 3.4 6.082 6.082 0 0 1-1.09 3.484l.013-.02c-.232.346-1.448 1.589-5.973 6.114l-5.682 5.68-5.682-5.68c-6.059-6.059-6.013-6.01-6.475-6.994a5.985 5.985 0 0 1-.575-2.58c0-1.646.654-3.139 1.717-4.233l-.001.002c1.061-1.098 2.35-1.73 3.816-1.87.25-.024.466-.046.48-.051.014-.003.291.018.613.046z"/></symbol><symbol id="icon-trash" viewBox="0 0 32 32"><path d="M12.72 1.554a3.813 3.813 0 0 0-2.602 1.658l-.009.014c-.459.722-.57 1.179-.611 2.534l-.03 1.04-2.934.027c-3.214.029-3.074.014-3.397.355a1.23 1.23 0 0 0 .001 1.637l-.001-.001c.285.301.389.326 1.397.355l.934.027.029 8.373c.034 9.234.014 8.712.37 9.685.456 1.251 1.627 2.426 2.864 2.874.99.358.803.349 7.27.349s6.28.01 7.27-.349c1.237-.448 2.408-1.622 2.864-2.874.355-.973.336-.451.37-9.685l.029-8.373.934-.027c1.008-.029 1.112-.054 1.397-.355.523-.55.368-1.504-.304-1.875-.142-.078-.491-.093-3.093-.115l-2.934-.027-.03-1.04c-.042-1.355-.152-1.813-.611-2.534a3.786 3.786 0 0 0-2.644-1.675l-.02-.002c-.459-.066-6.056-.061-6.507.005zm6.397 2.396c.21.05.33.128.568.366.371.37.411.525.434 1.683l.014.8h-8.266l.014-.8c.021-1.083.067-1.291.362-1.618.323-.362.525-.445 1.195-.493.874-.062 5.365-.016 5.678.061zm5.016 13.33c-.002 7.472-.01 8.118-.096 8.582-.115.619-.325 1.03-.734 1.44s-.821.619-1.44.736c-.459.086-.963.094-5.862.094s-5.403-.008-5.862-.094c-.618-.117-1.03-.326-1.438-.734a2.572 2.572 0 0 1-.675-1.118l-.005-.018c-.042-.15-.098-.755-.126-1.341-.056-1.203-.072-15.563-.018-15.619.021-.019 3.686-.029 8.147-.021l8.11.013v8.08zM13 14.184a1.309 1.309 0 0 0-.656.487l-.003.004-.154.222v7.53l.155.229c.203.313.551.518.947.518l.046-.001h-.002l.043.001c.396 0 .745-.204.946-.513l.003-.004.155-.229v-7.52l-.155-.23a1.468 1.468 0 0 0-.378-.36l-.006-.003c-.25-.147-.698-.208-.941-.13zm5.334 0c-.273.092-.5.264-.658.487l-.003.004-.154.222v7.53l.155.229c.204.313.552.518.949.518l.046-.001h-.002a1.122 1.122 0 0 0 .988-.512l.003-.004.155-.229v-7.52l-.155-.23a1.468 1.468 0 0 0-.378-.36l-.006-.003c-.25-.147-.698-.208-.939-.13z"/></symbol><symbol id="icon-search" viewBox="0 0 32 32"><path d="M13.76 2.699a13.214 13.214 0 0 0-3.548.829l.091-.031c-4.043 1.602-6.85 5.14-7.511 9.463-.128.844-.128 2.569 0 3.413.812 5.312 4.86 9.36 10.169 10.169.844.128 2.569.128 3.413 0 1.984-.302 3.952-1.116 5.46-2.261l.315-.236 2.565 2.558c2.462 2.457 2.58 2.564 2.857 2.645.361.107.5.107.844.004.395-.136.701-.442.835-.828l.003-.009c.103-.345.103-.484-.004-.844-.082-.277-.188-.395-2.645-2.857l-2.558-2.565.236-.315a11.932 11.932 0 0 0 1.961-4.042l.019-.084c.293-1.127.375-1.785.375-3.04s-.082-1.913-.375-3.04C25.02 7.011 21.21 3.54 16.495 2.812l-.067-.009c-.549-.084-2.192-.146-2.667-.103zm2.427 2.761c3.677.629 6.587 3.336 7.502 6.849l.014.065c.224.896.268 1.269.268 2.293s-.044 1.397-.268 2.293c-.864 3.318-3.425 5.879-6.678 6.729l-.065.014c-.896.224-1.269.268-2.293.268-1.639 0-2.887-.302-4.32-1.044a8.676 8.676 0 0 1-2.261-1.676l-.002-.002c-1.442-1.44-2.277-3.081-2.651-5.196-.092-.526-.092-2.247 0-2.773.27-1.532.821-2.885 1.65-4.05.459-.647 1.5-1.689 2.148-2.148a9.547 9.547 0 0 1 3.076-1.439l.067-.015c.441-.11.72-.16 1.467-.265.329-.044 1.936.02 2.347.096z"/></symbol><symbol id="icon-arrow-right" viewBox="0 0 32 32"><path d="M14.57.792c-.334.11-.598.354-.733.666l-.003.008a1.247 1.247 0 0 0-.015 1.048l-.003-.008c.084.188 1.32 1.454 5.586 5.72l5.478 5.48-23.146.002-.268.124a1.28 1.28 0 0 0-.725 1.418l-.001-.008c.068.298.221.553.431.747l.001.001c.044.038.19.122.322.186l.24.118 23.09.028-5.446 5.452c-2.996 2.998-5.492 5.536-5.544 5.64-.134.252-.136.916-.006 1.156.14.258.45.536.712.636.29.11.838.078 1.064-.062.228-.14 13.342-13.24 13.5-13.488.097-.156.157-.343.164-.544v-.002c.054-.68.562-.122-6.834-7.516C18.244 3.406 15.69.892 15.572.838A1.36 1.36 0 0 0 14.56.795l.01-.003z"/></symbol></defs></svg>